<svg width="120" height="40" viewBox="0 0 120 40" fill="none" xmlns="http://www.w3.org/2000/svg">
<g clip-path="url(#clip0_3_59)">
<path d="M110.444 0.00013H9.56145C9.19372 0.00013 8.8304 0.00013 8.46364 0.00213C8.15663 0.00413 7.85207 0.00994 7.54211 0.01483C6.86874 0.0227318 6.19695 0.0818063 5.53259 0.19154C4.86915 0.303663 4.2265 0.515046 3.62637 0.81854C3.02697 1.1246 2.47929 1.5223 2.00318 1.9972C1.52457 2.47077 1.12561 3.01815 0.82165 3.61829C0.516847 4.21724 0.305496 4.85907 0.194896 5.52161C0.083244 6.18332 0.0231632 6.85265 0.0151925 7.52361C0.00588648 7.83021 0.00490373 8.13783 0 8.44447V31.5587C0.00490373 31.8692 0.00588648 32.17 0.0151925 32.4806C0.0231657 33.1516 0.0832464 33.8209 0.194896 34.4825C0.30519 35.1455 0.516554 35.7877 0.82165 36.3868C1.12548 36.985 1.52449 37.5302 2.00318 38.0011C2.47748 38.4781 3.02552 38.8761 3.62637 39.1798C4.2265 39.4841 4.86908 39.6968 5.53259 39.8106C6.19707 39.9195 6.86879 39.9786 7.54211 39.9874C7.85207 39.9942 8.15663 39.9981 8.46364 39.9981C8.83039 40.0001 9.19374 40.0001 9.56145 40.0001H110.444C110.804 40.0001 111.171 40.0001 111.531 39.9981C111.837 39.9981 112.15 39.9942 112.455 39.9874C113.128 39.9791 113.798 39.92 114.461 39.8106C115.127 39.696 115.772 39.4834 116.375 39.1798C116.975 38.8759 117.522 38.478 117.996 38.0011C118.474 37.5284 118.874 36.9836 119.181 36.3868C119.484 35.7872 119.693 35.1451 119.802 34.4825C119.914 33.8208 119.976 33.1516 119.988 32.4806C119.992 32.17 119.992 31.8692 119.992 31.5587C120 31.1954 120 30.8341 120 30.4649V9.53626C120 9.17005 120 8.80677 119.992 8.44447C119.992 8.13783 119.992 7.83021 119.988 7.52357C119.976 6.85255 119.914 6.18337 119.802 5.52157C119.693 4.85941 119.484 4.21763 119.181 3.61825C118.562 2.41533 117.581 1.43616 116.375 0.81845C115.772 0.515697 115.127 0.30437 114.461 0.19145C113.798 0.0812328 113.128 0.0221378 112.455 0.01469C112.15 0.00981 111.837 0.00395 111.531 0.002C111.171 0 110.804 0.00013 110.444 0.00013Z" fill="#D6CFD2"/>
<path d="M8.46856 39.125C8.16303 39.125 7.86487 39.1211 7.56174 39.1143C6.93376 39.1061 6.30725 39.0516 5.68735 38.9512C5.10932 38.8519 4.54937 38.6673 4.02596 38.4033C3.50735 38.1415 3.03433 37.7983 2.62504 37.3867C2.20981 36.98 1.86412 36.5082 1.60166 35.9902C1.33631 35.4688 1.15267 34.9099 1.05714 34.333C0.953972 33.7131 0.898156 33.0863 0.890169 32.458C0.883812 32.2471 0.875488 31.5449 0.875488 31.5449V8.44434C0.875488 8.44434 0.884353 7.75293 0.89022 7.5498C0.897867 6.92248 0.953358 6.29665 1.05621 5.67773C1.15192 5.09925 1.3357 4.53875 1.6012 4.01563C1.8627 3.49794 2.20647 3.02586 2.61919 2.61768C3.03145 2.20562 3.50597 1.8606 4.02547 1.59521C4.54767 1.33209 5.10657 1.14873 5.68343 1.05127C6.30537 0.949836 6.93405 0.894996 7.5642 0.88721L8.46906 0.875H111.526L112.442 0.8877C113.066 0.895099 113.689 0.94945 114.305 1.05029C114.888 1.14898 115.453 1.33362 115.981 1.59814C117.022 2.13299 117.869 2.97916 118.403 4.01807C118.664 4.53758 118.845 5.09351 118.939 5.66699C119.044 6.29099 119.102 6.92174 119.114 7.5542C119.117 7.8374 119.117 8.1416 119.117 8.44434C119.125 8.81934 119.125 9.17627 119.125 9.53613V30.4648C119.125 30.8281 119.125 31.1826 119.117 31.54C119.117 31.8652 119.117 32.1631 119.113 32.4697C119.101 33.0909 119.044 33.7104 118.941 34.3232C118.848 34.9043 118.665 35.4675 118.4 35.9932C118.136 36.5056 117.792 36.9733 117.381 37.3789C116.972 37.7927 116.498 38.1379 115.978 38.4014C115.451 38.6674 114.887 38.8527 114.305 38.9512C113.686 39.0522 113.059 39.1067 112.431 39.1143C112.137 39.1211 111.83 39.125 111.531 39.125L110.444 39.127L8.46856 39.125Z" fill="#212121"/>
<path d="M24.8384 20.3007C24.8492 19.466 25.0715 18.6476 25.4847 17.9217C25.8979 17.1957 26.4885 16.5858 27.2016 16.1486C26.7486 15.5035 26.151 14.9725 25.4562 14.598C24.7614 14.2234 23.9887 14.0156 23.1992 13.9909C21.5153 13.8147 19.8828 14.9958 19.0247 14.9958C18.1499 14.9958 16.8287 14.0084 15.406 14.0376C14.4858 14.0673 13.5889 14.3341 12.8028 14.8122C12.0168 15.2902 11.3683 15.9632 10.9205 16.7655C8.98111 20.1139 10.4278 25.035 12.2856 27.7416C13.2151 29.0669 14.3014 30.5474 15.7228 30.4949C17.1138 30.4374 17.6333 29.6104 19.3123 29.6104C20.9757 29.6104 21.4631 30.4949 22.9133 30.4615C24.4059 30.4373 25.3463 29.1303 26.2432 27.7924C26.911 26.848 27.4249 25.8043 27.7659 24.6999C26.8987 24.3341 26.1587 23.7219 25.6382 22.9396C25.1176 22.1574 24.8394 21.2395 24.8384 20.3007Z" fill="#FDFDFD"/>
<path d="M22.0991 12.2109C22.9129 11.2367 23.3139 9.9845 23.2168 8.72027C21.9735 8.85049 20.825 9.44305 20.0002 10.3799C19.5969 10.8375 19.288 11.37 19.0913 11.9467C18.8945 12.5235 18.8136 13.1333 18.8533 13.7413C19.4751 13.7477 20.0904 13.6132 20.6526 13.3482C21.2148 13.0831 21.7094 12.6942 22.0991 12.2109Z" fill="#FDFDFD"/>
<path d="M42.421 27.1397H37.6743L36.5344 30.4961H34.5239L39.0199 18.0781H41.1088L45.6047 30.4961H43.56L42.421 27.1397ZM38.166 25.5908H41.9285L40.0737 20.1436H40.0218L38.166 25.5908Z" fill="#FDFDFD"/>
<path d="M55.3146 25.9697C55.3146 28.7832 53.8045 30.5908 51.5256 30.5908C50.9484 30.6209 50.3743 30.4883 49.869 30.2082C49.3638 29.9281 48.948 29.5117 48.669 29.0068H48.6259V33.4912H46.7623V21.4424H48.5662V22.9482H48.6005C48.8922 22.4458 49.3151 22.0316 49.8242 21.7497C50.3332 21.4679 50.9094 21.3289 51.4914 21.3477C53.7956 21.3477 55.3146 23.1641 55.3146 25.9697ZM53.399 25.9697C53.399 24.1367 52.4491 22.9316 50.9997 22.9316C49.5758 22.9316 48.6181 24.1621 48.6181 25.9697C48.6181 27.794 49.5758 29.0156 50.9997 29.0156C52.4491 29.0156 53.399 27.8193 53.399 25.9697Z" fill="#FDFDFD"/>
<path d="M65.3074 25.9697C65.3074 28.7832 63.7973 30.5908 61.5184 30.5908C60.9412 30.6209 60.3671 30.4883 59.8618 30.2082C59.3566 29.9281 58.9408 29.5117 58.6618 29.0068H58.6187V33.4912H56.7551V21.4424H58.5589V22.9482H58.5932C58.885 22.4458 59.3079 22.0316 59.817 21.7497C60.326 21.4679 60.9022 21.3289 61.4841 21.3477C63.7885 21.3477 65.3074 23.1641 65.3074 25.9697ZM63.3918 25.9697C63.3918 24.1367 62.4419 22.9316 60.9925 22.9316C59.5686 22.9316 58.6109 24.1621 58.6109 25.9697C58.6109 27.794 59.5686 29.0156 60.9925 29.0156C62.4419 29.0156 63.3918 27.8193 63.3918 25.9697Z" fill="#FDFDFD"/>
<path d="M71.9118 27.0361C72.0499 28.2676 73.2495 29.0761 74.8889 29.0761C76.4597 29.0761 77.5898 28.2675 77.5898 27.1572C77.5898 26.1933 76.9082 25.6162 75.2943 25.2207L73.6804 24.833C71.3938 24.2822 70.3322 23.2158 70.3322 21.4853C70.3322 19.3427 72.2046 17.871 74.8634 17.871C77.4948 17.871 79.2987 19.3427 79.3594 21.4853H77.4781C77.3655 20.246 76.3382 19.498 74.837 19.498C73.3357 19.498 72.3084 20.2548 72.3084 21.3564C72.3084 22.2343 72.9645 22.7509 74.5696 23.1464L75.9416 23.4823C78.4966 24.0849 79.5582 25.1083 79.5582 26.9247C79.5582 29.248 77.7024 30.703 74.7508 30.703C71.9891 30.703 70.1245 29.2821 70.0041 27.036L71.9118 27.0361Z" fill="#FDFDFD"/>
<path d="M83.5802 19.2998V21.4424H85.3067V22.9141H83.5802V27.9053C83.5802 28.6807 83.9259 29.042 84.6849 29.042C84.8898 29.0384 85.0945 29.0241 85.2979 28.999V30.4619C84.9567 30.5255 84.6099 30.5543 84.2628 30.5478C82.4246 30.5478 81.7078 29.8593 81.7078 28.1035V22.9141H80.3877V21.4424H81.7078V19.2998H83.5802Z" fill="#FDFDFD"/>
<path d="M86.3066 25.9697C86.3066 23.1211 87.9891 21.3311 90.6126 21.3311C93.245 21.3311 94.9196 23.1211 94.9196 25.9697C94.9196 28.8262 93.2538 30.6084 90.6126 30.6084C87.9724 30.6084 86.3066 28.8262 86.3066 25.9697ZM93.0207 25.9697C93.0207 24.0156 92.1227 22.8623 90.6126 22.8623C89.1025 22.8623 88.2055 24.0244 88.2055 25.9697C88.2055 27.9316 89.1025 29.0762 90.6126 29.0762C92.1227 29.0762 93.0207 27.9316 93.0207 25.9697Z" fill="#FDFDFD"/>
<path d="M96.4561 21.4424H98.2335V22.9834H98.2766C98.3969 22.5021 98.6796 22.0768 99.0773 21.7789C99.475 21.481 99.9634 21.3287 100.46 21.3476C100.675 21.3469 100.889 21.3702 101.099 21.417V23.1553C100.828 23.0726 100.545 23.0347 100.262 23.043C99.9909 23.032 99.721 23.0796 99.4704 23.1825C99.2199 23.2854 98.9946 23.4411 98.8102 23.639C98.6257 23.8369 98.4863 24.0723 98.4016 24.3289C98.317 24.5856 98.289 24.8575 98.3197 25.126V30.4961H96.4561L96.4561 21.4424Z" fill="#FDFDFD"/>
<path d="M109.691 27.8369C109.441 29.4805 107.836 30.6084 105.782 30.6084C103.141 30.6084 101.501 28.8437 101.501 26.0127C101.501 23.1728 103.15 21.3311 105.704 21.3311C108.216 21.3311 109.795 23.0517 109.795 25.7969V26.4336H103.383V26.5459C103.353 26.8791 103.395 27.2148 103.505 27.5306C103.616 27.8464 103.793 28.1352 104.024 28.3778C104.255 28.6203 104.535 28.8111 104.845 28.9374C105.156 29.0637 105.49 29.1226 105.825 29.1103C106.265 29.1515 106.707 29.0498 107.085 28.8203C107.463 28.5909 107.756 28.246 107.922 27.8369L109.691 27.8369ZM103.392 25.1348H107.931C107.947 24.8352 107.902 24.5354 107.797 24.2541C107.692 23.9729 107.53 23.7164 107.321 23.5006C107.111 23.2849 106.86 23.1145 106.582 23.0003C106.303 22.8861 106.004 22.8305 105.704 22.8369C105.4 22.8351 105.099 22.8932 104.819 23.008C104.538 23.1227 104.282 23.2918 104.067 23.5054C103.853 23.7191 103.682 23.973 103.566 24.2527C103.45 24.5323 103.391 24.8321 103.392 25.1348Z" fill="#FDFDFD"/>
<path d="M36.8414 11.2534H37.6415C37.7792 11.2705 37.919 11.259 38.0521 11.2195C38.1851 11.1801 38.3085 11.1136 38.4145 11.0242C38.5205 10.9349 38.6068 10.8246 38.6679 10.7003C38.729 10.5761 38.7637 10.4405 38.7697 10.3023C38.7697 9.75196 38.3544 9.39649 37.6503 9.39649C37.5092 9.37683 37.3656 9.38556 37.2279 9.42217C37.0902 9.45878 36.9613 9.52252 36.8488 9.60964C36.7362 9.69675 36.6423 9.80547 36.5726 9.92938C36.5029 10.0533 36.4588 10.1899 36.4428 10.3311H35.5644C35.5795 10.0748 35.6474 9.82431 35.7638 9.5953C35.8801 9.36629 36.0426 9.16362 36.2409 8.99992C36.4392 8.83621 36.6693 8.71498 36.9166 8.64375C37.164 8.57253 37.4234 8.55285 37.6787 8.58594C38.8568 8.58594 39.6863 9.24365 39.6863 10.1904C39.6891 10.5076 39.5827 10.8161 39.3848 11.0645C39.187 11.3129 38.9097 11.4861 38.5993 11.5552V11.6255C38.9673 11.6418 39.3139 11.8027 39.5633 12.0731C39.8127 12.3434 39.9446 12.7013 39.9302 13.0684C39.9029 13.3323 39.8231 13.5881 39.6955 13.8208C39.5678 14.0536 39.3948 14.2585 39.1867 14.4238C38.9786 14.589 38.7394 14.7111 38.4834 14.783C38.2273 14.8548 37.9594 14.875 37.6954 14.8423C37.4308 14.8783 37.1617 14.8607 36.9041 14.7908C36.6465 14.7208 36.4056 14.5999 36.1959 14.4351C35.9862 14.2703 35.8118 14.0651 35.6833 13.8317C35.5548 13.5984 35.4747 13.3416 35.4479 13.0767H36.34C36.3939 13.6475 36.9198 14.0157 37.6954 14.0157C38.471 14.0157 38.9773 13.6021 38.9773 13.0191C38.9773 12.4278 38.5004 12.0635 37.667 12.0635H36.8414V11.2534Z" fill="#FDFDFD"/>
<path d="M40.9437 13.4243C40.9437 12.6138 41.5499 12.1465 42.6232 12.0801L43.8464 12.0098V11.6211C43.8464 11.1455 43.532 10.877 42.9219 10.877C42.4244 10.877 42.0807 11.0591 41.9808 11.3774H41.118C41.2091 10.604 41.9397 10.1079 42.964 10.1079C44.0961 10.1079 44.7346 10.6699 44.7346 11.6211V14.6978H43.8758V14.0649H43.8053C43.6621 14.2919 43.4612 14.477 43.2229 14.6012C42.9846 14.7254 42.7175 14.7843 42.4489 14.7719C42.2594 14.7916 42.0678 14.7714 41.8865 14.7127C41.7052 14.654 41.5383 14.5581 41.3965 14.4312C41.2547 14.3042 41.1411 14.149 41.0631 13.9756C40.9851 13.8022 40.9445 13.6144 40.9437 13.4243ZM43.8464 13.0395V12.6631L42.7436 12.7334C42.1218 12.7749 41.8397 12.9858 41.8397 13.3828C41.8397 13.7881 42.1923 14.0239 42.6771 14.0239C42.8191 14.0383 42.9626 14.024 43.099 13.9819C43.2354 13.9398 43.3619 13.8708 43.471 13.7789C43.5801 13.6871 43.6696 13.5743 43.734 13.4473C43.7985 13.3203 43.8367 13.1816 43.8464 13.0395Z" fill="#FDFDFD"/>
<path d="M47.0996 10.9429V14.6978H46.2084V10.1948H49.1816V10.9428L47.0996 10.9429Z" fill="#FDFDFD"/>
<path d="M54.5825 12.4443C54.5825 13.875 53.8568 14.772 52.7169 14.772C52.4371 14.791 52.1576 14.73 51.9114 14.596C51.6653 14.462 51.4626 14.2606 51.3273 14.0156H51.2568V16.1948H50.3656V10.1948H51.2235V10.939H51.2901C51.4278 10.6854 51.6331 10.4748 51.8833 10.3303C52.1336 10.1858 52.419 10.1131 52.7081 10.1201C53.8568 10.1201 54.5825 11.0132 54.5825 12.4443ZM53.6659 12.4443C53.6659 11.4932 53.2144 10.9185 52.4594 10.9185C51.7093 10.9185 51.2401 11.5054 51.2401 12.4482C51.2401 13.3867 51.7092 13.9741 52.4554 13.9741C53.2144 13.9741 53.6659 13.3994 53.6659 12.4443Z" fill="#FDFDFD"/>
<path d="M55.7694 16.3106V15.5454C55.8658 15.5576 55.963 15.5632 56.0602 15.562C56.2501 15.576 56.4384 15.5196 56.5892 15.4037C56.7399 15.2877 56.8424 15.1203 56.8769 14.9336L56.9435 14.7143L55.3091 10.1948H56.2796L57.4117 13.7715H57.4822L58.6104 10.1948H59.5554L57.872 14.8838C57.4861 15.9795 57.0591 16.3311 56.1386 16.3311C56.0642 16.3311 55.8526 16.3228 55.7694 16.3106Z" fill="#FDFDFD"/>
<path d="M60.2497 13.4199H61.1369C61.2241 13.8169 61.5972 14.0239 62.1192 14.0239C62.7127 14.0239 63.0769 13.7632 63.0769 13.3579C63.0769 12.9238 62.7499 12.7168 62.1192 12.7168H61.4435V12.0264H62.1074C62.6461 12.0264 62.9203 11.8198 62.9203 11.4434C62.9203 11.1128 62.6549 10.8604 62.1074 10.8604C61.609 10.8604 61.2447 11.0713 61.1869 11.4268H60.328C60.3923 11.0183 60.6147 10.6513 60.9474 10.4047C61.2802 10.158 61.6967 10.0515 62.1074 10.1079C63.1807 10.1079 63.7948 10.5918 63.7948 11.3526C63.7998 11.5644 63.7317 11.7716 63.602 11.9394C63.4722 12.1072 63.2886 12.2254 63.0818 12.2744V12.3448C63.328 12.3764 63.5539 12.4971 63.7167 12.6838C63.8795 12.8706 63.968 13.1105 63.9652 13.3579C63.9652 14.2139 63.2346 14.7803 62.1192 14.7803C61.133 14.7803 60.332 14.3296 60.2497 13.4199Z" fill="#FDFDFD"/>
<path d="M65.2486 14.6978V10.1948H66.1319V13.292H66.2024L68.2835 10.1948H69.1668V14.6978H68.2835V11.584H68.2169L66.1319 14.6978L65.2486 14.6978Z" fill="#FDFDFD"/>
<path d="M74.0329 10.9429H72.6109V14.6978H71.7188V10.9429H70.2968V10.1949H74.0329V10.9429Z" fill="#FDFDFD"/>
<path d="M78.8335 13.4819C78.7121 13.8935 78.4495 14.2494 78.0917 14.4875C77.7339 14.7256 77.3035 14.8308 76.8759 14.7847C76.5784 14.7925 76.2827 14.7357 76.0095 14.6181C75.7362 14.5006 75.4918 14.3252 75.2934 14.1041C75.0949 13.8829 74.9471 13.6214 74.8602 13.3375C74.7732 13.0537 74.7493 12.7544 74.7899 12.4604C74.7503 12.1656 74.7747 11.8656 74.8614 11.581C74.9482 11.2963 75.0952 11.0335 75.2926 10.8104C75.4901 10.5874 75.7332 10.4092 76.0057 10.288C76.2782 10.1668 76.5736 10.1054 76.8719 10.1079C78.1284 10.1079 78.8874 10.9639 78.8874 12.3779V12.688H75.6988V12.7378C75.6846 12.9031 75.7053 13.0695 75.7596 13.2263C75.8138 13.3831 75.9003 13.5269 76.0135 13.6484C76.1268 13.7699 76.2643 13.8664 76.4172 13.9317C76.5701 13.9971 76.735 14.0298 76.9013 14.0278C77.1144 14.0532 77.3301 14.0149 77.5213 13.9177C77.7124 13.8205 77.8702 13.6688 77.9747 13.4819L78.8335 13.4819ZM75.6987 12.0308H77.9785C77.9898 11.8797 77.9693 11.728 77.9182 11.5853C77.8672 11.4427 77.7868 11.3122 77.6822 11.2024C77.5777 11.0925 77.4512 11.0057 77.311 10.9475C77.1708 10.8892 77.0199 10.8609 76.868 10.8643C76.7138 10.8622 76.5608 10.8909 76.418 10.9488C76.2751 11.0067 76.1454 11.0925 76.0364 11.2013C75.9274 11.31 75.8413 11.4395 75.7833 11.5819C75.7254 11.7244 75.6966 11.877 75.6987 12.0308Z" fill="#FDFDFD"/>
<path d="M82.6116 10.1948H84.6476C85.5309 10.1948 86.049 10.6411 86.049 11.3398C86.0504 11.5615 85.9753 11.777 85.8365 11.9501C85.6976 12.1233 85.5033 12.2436 85.2861 12.291V12.3613C85.5498 12.3779 85.7971 12.4949 85.9768 12.6881C86.1565 12.8813 86.2549 13.1359 86.2517 13.3994C86.2517 14.185 85.6592 14.6977 84.6682 14.6977H82.6116V10.1948ZM83.495 10.877V12.0429H84.3783C84.9169 12.0429 85.1745 11.8364 85.1745 11.4556C85.1745 11.1045 84.9502 10.8769 84.4772 10.8769L83.495 10.877ZM83.495 12.6963V14.0156H84.5517C85.0785 14.0156 85.3606 13.7837 85.3606 13.3579C85.3606 12.9072 85.0413 12.6963 84.44 12.6963L83.495 12.6963Z" fill="#FDFDFD"/>
</g>
<defs>
<clipPath id="clip0_3_59">
<rect width="120" height="40" fill="white"/>
</clipPath>
</defs>
</svg>
