<svg width="94" height="40" viewBox="0 0 94 40" fill="none" xmlns="http://www.w3.org/2000/svg">
<rect width="40" height="40" rx="20" fill="#FFA6C9"/>
<path d="M17.552 9.396V18.58C17.552 18.9213 17.6267 19.1667 17.776 19.316C17.9467 19.4653 18.3093 19.54 18.864 19.54H21.232V22.58H17.168C15.952 22.58 14.9707 22.452 14.224 22.196C13.4987 21.94 12.9547 21.492 12.592 20.852C12.2507 20.1907 12.0267 19.4867 11.92 18.74C11.8347 17.9933 11.792 16.9907 11.792 15.732C11.792 14.452 11.8347 13.4813 11.92 12.82C12.0267 12.1587 12.2507 11.54 12.592 10.964C12.9547 10.388 13.4987 9.98267 14.224 9.748C14.9707 9.51333 15.952 9.396 17.168 9.396H17.552ZM22.512 19.54H22.896C23.8133 19.54 24.5173 19.5613 25.008 19.604C25.52 19.6253 26.0107 19.7213 26.48 19.892C26.9493 20.0413 27.2693 20.2227 27.44 20.436C27.632 20.6493 27.8027 21.0227 27.952 21.556C28.1227 22.068 28.2187 22.6227 28.24 23.22C28.2613 23.8173 28.272 24.6707 28.272 25.78C28.272 26.8893 28.2613 27.7747 28.24 28.436C28.2187 29.076 28.1227 29.6947 27.952 30.292C27.8027 30.868 27.632 31.2733 27.44 31.508C27.2693 31.7427 26.9493 31.956 26.48 32.148C26.0107 32.3187 25.52 32.4253 25.008 32.468C24.5173 32.4893 23.8133 32.5 22.896 32.5H22.512V19.54ZM12.24 25.364H16.272C16.5707 25.364 16.752 25.4067 16.816 25.492C16.88 25.5773 16.912 25.7587 16.912 26.036V28.532C16.912 28.8733 16.9547 29.1187 17.04 29.268C17.1467 29.396 17.392 29.46 17.776 29.46H21.232V32.5H16.528C14.9707 32.5 13.7867 32.2333 12.976 31.7C12.1867 31.1667 11.792 30.2387 11.792 28.916V26.036C11.792 25.588 11.9413 25.364 12.24 25.364ZM18.832 9.364H22.896C24.4533 9.364 25.6267 9.63067 26.416 10.164C27.2267 10.6973 27.632 11.6253 27.632 12.948V15.828C27.632 16.276 27.4827 16.5 27.184 16.5H23.152C22.8533 16.5 22.672 16.4573 22.608 16.372C22.544 16.2867 22.512 16.1053 22.512 15.828V13.332C22.512 12.9907 22.4587 12.756 22.352 12.628C22.2667 12.4787 22.032 12.404 21.648 12.404H18.832V9.364Z" fill="#FDFDFD"/>
<path d="M52.72 13.56V19.3C52.72 19.5133 52.7667 19.6667 52.86 19.76C52.9667 19.8533 53.1933 19.9 53.54 19.9H55.02V21.8H52.48C51.72 21.8 51.1067 21.72 50.64 21.56C50.1867 21.4 49.8467 21.12 49.62 20.72C49.4067 20.3067 49.2667 19.8667 49.2 19.4C49.1467 18.9333 49.12 18.3067 49.12 17.52C49.12 16.72 49.1467 16.1133 49.2 15.7C49.2667 15.2867 49.4067 14.9 49.62 14.54C49.8467 14.18 50.1867 13.9267 50.64 13.78C51.1067 13.6333 51.72 13.56 52.48 13.56H52.72ZM55.82 19.9H56.06C56.6333 19.9 57.0733 19.9133 57.38 19.94C57.7 19.9533 58.0067 20.0133 58.3 20.12C58.5933 20.2133 58.7933 20.3267 58.9 20.46C59.02 20.5933 59.1267 20.8267 59.22 21.16C59.3267 21.48 59.3867 21.8267 59.4 22.2C59.4133 22.5733 59.42 23.1067 59.42 23.8C59.42 24.4933 59.4133 25.0467 59.4 25.46C59.3867 25.86 59.3267 26.2467 59.22 26.62C59.1267 26.98 59.02 27.2333 58.9 27.38C58.7933 27.5267 58.5933 27.66 58.3 27.78C58.0067 27.8867 57.7 27.9533 57.38 27.98C57.0733 27.9933 56.6333 28 56.06 28H55.82V19.9ZM49.4 23.54H51.92C52.1067 23.54 52.22 23.5667 52.26 23.62C52.3 23.6733 52.32 23.7867 52.32 23.96V25.52C52.32 25.7333 52.3467 25.8867 52.4 25.98C52.4667 26.06 52.62 26.1 52.86 26.1H55.02V28H52.08C51.1067 28 50.3667 27.8333 49.86 27.5C49.3667 27.1667 49.12 26.5867 49.12 25.76V23.96C49.12 23.68 49.2133 23.54 49.4 23.54ZM53.52 13.54H56.06C57.0333 13.54 57.7667 13.7067 58.26 14.04C58.7667 14.3733 59.02 14.9533 59.02 15.78V17.58C59.02 17.86 58.9267 18 58.74 18H56.22C56.0333 18 55.92 17.9733 55.88 17.92C55.84 17.8667 55.82 17.7533 55.82 17.58V16.02C55.82 15.8067 55.7867 15.66 55.72 15.58C55.6667 15.4867 55.52 15.44 55.28 15.44H53.52V13.54ZM65.1005 28H63.0005C62.5471 28 62.2471 27.9267 62.1005 27.78C61.9671 27.6333 61.9005 27.3267 61.9005 26.86V14.68C61.9005 14.2133 61.9671 13.9067 62.1005 13.76C62.2471 13.6133 62.5471 13.54 63.0005 13.54H65.1005V28ZM78.9352 13.54V26.86C78.9352 27.3267 78.8618 27.6333 78.7152 27.78C78.5818 27.9267 78.2885 28 77.8352 28H74.9952C74.2085 28 73.6885 27.88 73.4352 27.64C73.1952 27.4 72.9818 26.78 72.7952 25.78C72.4218 23.8067 71.8818 20.62 71.1752 16.22C71.1218 15.8867 71.0418 15.6733 70.9352 15.58C70.8418 15.4867 70.6752 15.4333 70.4352 15.42H67.9752V13.54H72.3152C72.6485 13.54 72.9152 13.58 73.1152 13.66C73.3152 13.74 73.4752 13.9133 73.5952 14.18C73.7285 14.4333 73.8152 14.68 73.8552 14.92C73.9085 15.16 73.9618 15.44 74.0152 15.76C74.0818 16.1467 74.1752 16.7133 74.2952 17.46C74.5218 18.9667 74.8752 21.0933 75.3552 23.84C75.5418 25.0133 75.6685 25.6733 75.7352 25.82C75.8152 25.9533 75.9485 26.0333 76.1352 26.06V14.34C76.1352 14.1 76.2018 13.9067 76.3352 13.76C76.4685 13.6133 76.6418 13.54 76.8552 13.54H78.9352ZM67.9752 16.12H70.0552C70.2685 16.12 70.4418 16.1933 70.5752 16.34C70.7085 16.4867 70.7752 16.68 70.7752 16.92V26.86C70.7752 27.3133 70.7152 27.62 70.5952 27.78C70.4752 27.9267 70.2352 28 69.8752 28H67.9752V16.12ZM85.2428 13.54V25.52C85.2428 25.72 85.2895 25.8667 85.3828 25.96C85.4895 26.0533 85.7161 26.1 86.0628 26.1H87.5428V28H85.0028C84.4695 28 84.0228 27.96 83.6628 27.88C83.3161 27.8 83.0095 27.64 82.7428 27.4C82.4895 27.1467 82.2895 26.8667 82.1428 26.56C82.0095 26.2533 81.9028 25.7933 81.8228 25.18C81.7028 24.26 81.6428 23.0267 81.6428 21.48C81.6428 19.92 81.6495 18.82 81.6628 18.18C81.6895 17.54 81.7428 16.92 81.8228 16.32C81.9028 15.7067 82.0095 15.2533 82.1428 14.96C82.2895 14.6533 82.4895 14.38 82.7428 14.14C83.0095 13.8867 83.3161 13.7267 83.6628 13.66C84.0228 13.58 84.4695 13.54 85.0028 13.54H85.2428ZM86.0428 13.56H88.5828C89.1161 13.56 89.5561 13.6 89.9028 13.68C90.2628 13.76 90.5695 13.9267 90.8228 14.18C91.0895 14.42 91.2895 14.6933 91.4228 15C91.5695 15.3067 91.6828 15.7667 91.7628 16.38C91.8828 17.3 91.9428 18.54 91.9428 20.1C91.9428 21.6467 91.9295 22.74 91.9028 23.38C91.8895 24.02 91.8428 24.6467 91.7628 25.26C91.6828 25.86 91.5695 26.3133 91.4228 26.62C91.2895 26.9133 91.0895 27.1867 90.8228 27.44C90.5695 27.68 90.2628 27.84 89.9028 27.92C89.5561 27.9867 89.1161 28.02 88.5828 28.02H88.3428V16.04C88.3428 15.84 88.2895 15.6933 88.1828 15.6C88.0895 15.5067 87.8695 15.46 87.5228 15.46H86.0428V13.56Z" fill="#FFA6C9"/>
</svg>
