<svg width="40" height="40" viewBox="0 0 40 40" fill="none" xmlns="http://www.w3.org/2000/svg">
<rect width="40" height="40" rx="20" fill="#FFA6C9"/>
<path d="M17.552 9.396V18.58C17.552 18.9213 17.6267 19.1667 17.776 19.316C17.9467 19.4653 18.3093 19.54 18.864 19.54H21.232V22.58H17.168C15.952 22.58 14.9707 22.452 14.224 22.196C13.4987 21.94 12.9547 21.492 12.592 20.852C12.2507 20.1907 12.0267 19.4867 11.92 18.74C11.8347 17.9933 11.792 16.9907 11.792 15.732C11.792 14.452 11.8347 13.4813 11.92 12.82C12.0267 12.1587 12.2507 11.54 12.592 10.964C12.9547 10.388 13.4987 9.98267 14.224 9.748C14.9707 9.51333 15.952 9.396 17.168 9.396H17.552ZM22.512 19.54H22.896C23.8133 19.54 24.5173 19.5613 25.008 19.604C25.52 19.6253 26.0107 19.7213 26.48 19.892C26.9493 20.0413 27.2693 20.2227 27.44 20.436C27.632 20.6493 27.8027 21.0227 27.952 21.556C28.1227 22.068 28.2187 22.6227 28.24 23.22C28.2613 23.8173 28.272 24.6707 28.272 25.78C28.272 26.8893 28.2613 27.7747 28.24 28.436C28.2187 29.076 28.1227 29.6947 27.952 30.292C27.8027 30.868 27.632 31.2733 27.44 31.508C27.2693 31.7427 26.9493 31.956 26.48 32.148C26.0107 32.3187 25.52 32.4253 25.008 32.468C24.5173 32.4893 23.8133 32.5 22.896 32.5H22.512V19.54ZM12.24 25.364H16.272C16.5707 25.364 16.752 25.4067 16.816 25.492C16.88 25.5773 16.912 25.7587 16.912 26.036V28.532C16.912 28.8733 16.9547 29.1187 17.04 29.268C17.1467 29.396 17.392 29.46 17.776 29.46H21.232V32.5H16.528C14.9707 32.5 13.7867 32.2333 12.976 31.7C12.1867 31.1667 11.792 30.2387 11.792 28.916V26.036C11.792 25.588 11.9413 25.364 12.24 25.364ZM18.832 9.364H22.896C24.4533 9.364 25.6267 9.63067 26.416 10.164C27.2267 10.6973 27.632 11.6253 27.632 12.948V15.828C27.632 16.276 27.4827 16.5 27.184 16.5H23.152C22.8533 16.5 22.672 16.4573 22.608 16.372C22.544 16.2867 22.512 16.1053 22.512 15.828V13.332C22.512 12.9907 22.4587 12.756 22.352 12.628C22.2667 12.4787 22.032 12.404 21.648 12.404H18.832V9.364Z" fill="#FDFDFD"/>
</svg>
